<svg width="25" height="24" viewBox="0 0 25 24" fill="none" xmlns="http://www.w3.org/2000/svg">
<path fill-rule="evenodd" clip-rule="evenodd" d="M16.5 6C16.5 7.06087 16.0786 8.07828 15.3284 8.82843C14.5783 9.57857 13.5609 10 12.5 10C11.4391 10 10.4217 9.57857 9.67157 8.82843C8.92143 8.07828 8.5 7.06087 8.5 6C8.5 4.93913 8.92143 3.92172 9.67157 3.17157C10.4217 2.42143 11.4391 2 12.5 2C13.5609 2 14.5783 2.42143 15.3284 3.17157C16.0786 3.92172 16.5 4.93913 16.5 6ZM12.5 12C14.0913 12 15.6174 11.3679 16.7426 10.2426C17.8679 9.11742 18.5 7.5913 18.5 6C18.5 4.4087 17.8679 2.88258 16.7426 1.75736C15.6174 0.632141 14.0913 0 12.5 0C10.9087 0 9.38258 0.632141 8.25736 1.75736C7.13214 2.88258 6.5 4.4087 6.5 6C6.5 7.5913 7.13214 9.11742 8.25736 10.2426C9.38258 11.3679 10.9087 12 12.5 12ZM24.5 22C24.5 24 22.5 24 22.5 24H2.5C2.5 24 0.5 24 0.5 22C0.5 20 2.5 14 12.5 14C22.5 14 24.5 20 24.5 22ZM22.5 21.992C22.498 21.5 22.192 20.02 20.836 18.664C19.532 17.36 17.078 16 12.5 16C7.92 16 5.468 17.36 4.164 18.664C2.808 20.02 2.504 21.5 2.5 21.992H22.5Z" fill="white"/>
</svg>
