<svg width="25" height="24" viewBox="0 0 25 24" fill="none" xmlns="http://www.w3.org/2000/svg">
<path d="M12.4993 16.0003C12.2656 16.0007 12.0392 15.9194 11.8593 15.7703L5.8593 10.7703C5.65508 10.6005 5.52666 10.3566 5.50228 10.0922C5.4779 9.82777 5.55956 9.56449 5.7293 9.36028C5.89904 9.15606 6.14295 9.02763 6.40738 9.00325C6.6718 8.97888 6.93508 9.06054 7.1393 9.23028L12.4993 13.7103L17.8593 9.39028C17.9616 9.30721 18.0793 9.24518 18.2056 9.20775C18.332 9.17031 18.4645 9.15822 18.5955 9.17216C18.7265 9.1861 18.8535 9.2258 18.9691 9.28897C19.0848 9.35214 19.1868 9.43755 19.2693 9.54028C19.3609 9.6431 19.4302 9.76372 19.473 9.8946C19.5158 10.0255 19.5311 10.1638 19.518 10.3008C19.5048 10.4379 19.4635 10.5708 19.3967 10.6911C19.3298 10.8115 19.2387 10.9167 19.1293 11.0003L13.1293 15.8303C12.9442 15.9558 12.7224 16.0156 12.4993 16.0003Z" fill="white"/>
</svg>
