<svg width="37" height="36" viewBox="0 0 37 36" fill="none" xmlns="http://www.w3.org/2000/svg">
<path d="M11 12V9C11 7.01088 11.7902 5.10322 13.1967 3.6967C14.6032 2.29018 16.5109 1.5 18.5 1.5C20.4891 1.5 22.3968 2.29018 23.8033 3.6967C25.2098 5.10322 26 7.01088 26 9V12H30.5C30.8978 12 31.2794 12.158 31.5607 12.4393C31.842 12.7206 32 13.1022 32 13.5V31.5C32 31.8978 31.842 32.2794 31.5607 32.5607C31.2794 32.842 30.8978 33 30.5 33H6.5C6.10218 33 5.72064 32.842 5.43934 32.5607C5.15804 32.2794 5 31.8978 5 31.5V13.5C5 13.1022 5.15804 12.7206 5.43934 12.4393C5.72064 12.158 6.10218 12 6.5 12H11ZM11 15H8V30H29V15H26V18H23V15H14V18H11V15ZM14 12H23V9C23 7.80653 22.5259 6.66193 21.682 5.81802C20.8381 4.97411 19.6935 4.5 18.5 4.5C17.3065 4.5 16.1619 4.97411 15.318 5.81802C14.4741 6.66193 14 7.80653 14 9V12Z" fill="white"/>
</svg>
