<svg width="59" height="36" viewBox="0 0 59 36" fill="none" xmlns="http://www.w3.org/2000/svg">
<path d="M19.3175 34.5451C22.1291 34.5451 24.4084 32.2659 24.4084 29.4542C24.4084 26.6425 22.1291 24.3633 19.3175 24.3633C16.5058 24.3633 14.2266 26.6425 14.2266 29.4542C14.2266 32.2659 16.5058 34.5451 19.3175 34.5451Z" stroke="white" stroke-width="2" stroke-miterlimit="1.5" stroke-linecap="round" stroke-linejoin="round"/>
<path d="M44.7725 34.5451C47.5843 34.5451 49.8635 32.2659 49.8635 29.4542C49.8635 26.6425 47.5843 24.3633 44.7725 24.3633C41.9608 24.3633 39.6816 26.6425 39.6816 29.4542C39.6816 32.2659 41.9608 34.5451 44.7725 34.5451Z" stroke="white" stroke-width="2" stroke-miterlimit="1.5" stroke-linecap="round" stroke-linejoin="round"/>
<path d="M24.5364 29.4541H37.1364V2.98137C37.1364 2.13789 36.4527 1.4541 35.6091 1.4541H1.5" stroke="white" stroke-width="2" stroke-linecap="round"/>
<path d="M13.3373 29.4541H8.11907C7.27558 29.4541 6.5918 28.7704 6.5918 27.9268V15.4541" stroke="white" stroke-width="2" stroke-linecap="round"/>
<path d="M4.04492 9.09082H14.2267" stroke="white" stroke-width="2" stroke-linecap="round" stroke-linejoin="round"/>
<path d="M37.1367 9.09082H51.417C52.0205 9.09082 52.5675 9.44627 52.8126 9.99782L57.3688 20.2491C57.4556 20.4446 57.5004 20.6558 57.5004 20.8694V27.9272C57.5004 28.7707 56.8166 29.4545 55.9731 29.4545H51.1367" stroke="white" stroke-width="2" stroke-linecap="round"/>
<path d="M37.1367 29.4541H39.6822" stroke="white" stroke-width="2" stroke-linecap="round"/>
</svg>
