<svg width="20" height="21" viewBox="0 0 20 21" fill="none" xmlns="http://www.w3.org/2000/svg">
<path d="M13.0921 2.52302C12.0068 2.50732 10.8752 2.82189 9.99823 3.70511C9.11444 2.82361 7.972 2.52295 6.91616 2.52295C4.29257 2.52295 1.66602 4.69666 1.66602 7.77293C1.66602 10.739 3.56314 13.2084 5.4395 14.8871C6.3889 15.7366 7.36263 16.4109 8.15342 16.8753C8.54857 17.1074 8.90473 17.291 9.19534 17.4188C9.34014 17.4825 9.47602 17.5357 9.59704 17.574C9.70233 17.6074 9.85075 17.6479 9.9996 17.6479C10.1484 17.6479 10.2969 17.6074 10.4021 17.574C10.5232 17.5357 10.659 17.4825 10.8038 17.4188C11.0945 17.291 11.4506 17.1074 11.8458 16.8753C12.6366 16.4109 13.6103 15.7366 14.5597 14.8871C16.4361 13.2084 18.3332 10.739 18.3332 7.77293C18.3332 4.68937 15.7005 2.56076 13.0921 2.52302Z" fill="#F74440"/>
</svg>
