<svg width="34" height="40" viewBox="0 0 34 40" fill="none" xmlns="http://www.w3.org/2000/svg">
<path d="M10.3903 22.9545L1.5 39M22.2077 22.5986L32.5 39M13.9918 23.709L23.355 39M10.18 39L12.66 34.25M30.1154 12.4C30.1154 6.10397 23.7096 1 15.8077 1C7.90579 1 1.5 6.10397 1.5 12.4C1.5 18.696 7.90579 23.8 15.8077 23.8C23.7096 23.8 30.1154 18.696 30.1154 12.4Z" stroke="white" stroke-width="2" stroke-linecap="round" stroke-linejoin="round"/>
<path d="M15.9662 11.3812C14.0115 10.9764 13.3829 10.5579 13.3829 9.90608C13.3829 9.15822 14.2526 8.63677 15.7079 8.63677C16.9307 8.63677 17.5421 9.00727 17.766 9.59733C17.8693 9.87177 18.1535 10.0776 18.5151 10.0776H18.7735C19.3418 10.0776 19.7465 9.63163 19.5485 9.20624C19.1868 8.39663 18.3429 7.72424 16.9996 7.46352V6.9901C16.9996 6.42063 16.4226 5.96094 15.7079 5.96094C14.9932 5.96094 14.4162 6.42063 14.4162 6.9901V7.44294C12.7457 7.7311 11.4023 8.5956 11.4023 9.9198C11.4023 11.5047 13.0471 12.2937 15.4496 12.7534C17.6023 13.1651 18.0329 13.7689 18.0329 14.407C18.0329 14.8804 17.611 15.6351 15.7079 15.6351C14.2871 15.6351 13.5551 15.2303 13.271 14.654C13.1418 14.3864 12.849 14.1943 12.496 14.1943H12.2548C11.6779 14.1943 11.2732 14.6608 11.4885 15.0862C11.9793 16.0399 13.1246 16.6025 14.4162 16.8221V17.2818C14.4162 17.8512 14.9932 18.3109 15.7079 18.3109C16.4226 18.3109 16.9996 17.8512 16.9996 17.2818V16.8358C18.6787 16.5819 20.0135 15.8066 20.0135 14.4001C20.0135 12.4515 17.921 11.786 15.9662 11.3812Z" fill="white"/>
</svg>
