<svg width="51" height="50" viewBox="0 0 51 50" fill="none" xmlns="http://www.w3.org/2000/svg">
<path d="M49.5004 25C49.5004 39.4 38.9632 49 25.9648 49C15.401 49 6.8779 43.3962 3.90039 34.6" stroke="white" stroke-width="2" stroke-linecap="round" stroke-linejoin="round"/>
<path d="M1.5 25C1.5 10.6 12.0372 1 25.0356 1C35.5994 1 44.1226 6.60374 47.1 15.4" stroke="white" stroke-width="2" stroke-linecap="round" stroke-linejoin="round"/>
<path d="M13.5 36.9996L3.90002 34.5996L1.5 44.1996" stroke="white" stroke-width="2" stroke-linecap="round" stroke-linejoin="round"/>
<path d="M37.5 12.9998L47.1 15.3998L49.5 5.7998" stroke="white" stroke-width="2" stroke-linecap="round" stroke-linejoin="round"/>
<path fill-rule="evenodd" clip-rule="evenodd" d="M26.779 14.5544C26.5999 14.4826 26.4001 14.4826 26.221 14.5544L17.269 18.1349L20.875 19.5764L30.106 15.8849L26.779 14.5544ZM32.125 16.6934L22.894 20.3849L26.5 21.8264L35.731 18.1349L32.125 16.6934ZM37 19.2434L27.25 23.1434V35.0264L37 31.1264V19.2449V19.2434ZM25.75 35.0279V23.1419L16 19.2434V31.1279L25.75 35.0279ZM25.6645 13.1609C26.2008 12.9464 26.7992 12.9464 27.3355 13.1609L38.029 17.4389C38.168 17.4946 38.2872 17.5907 38.3711 17.7147C38.4551 17.8388 38.5 17.9851 38.5 18.1349V31.1279C38.4998 31.4276 38.4098 31.7204 38.2417 31.9685C38.0735 32.2166 37.8348 32.4087 37.5565 32.5199L26.779 36.8309C26.5999 36.9026 26.4001 36.9026 26.221 36.8309L15.445 32.5199C15.1664 32.4089 14.9274 32.217 14.759 31.9688C14.5905 31.7207 14.5003 31.4278 14.5 31.1279V18.1349C14.5 17.9851 14.5449 17.8388 14.6289 17.7147C14.7128 17.5907 14.832 17.4946 14.971 17.4389L25.6645 13.1609Z" fill="white"/>
</svg>
