<svg width="25" height="25" viewBox="0 0 25 25" fill="none" xmlns="http://www.w3.org/2000/svg">
<path fill-rule="evenodd" clip-rule="evenodd" d="M18.9237 17.1918C21.7682 13.6403 21.5444 8.44159 18.2521 5.14935C14.7196 1.61688 8.99236 1.61688 5.45989 5.14935C1.92743 8.68181 1.92743 14.4091 5.45989 17.9416C8.75214 21.2338 13.9509 21.4577 17.5024 18.6132L21.0948 22.2056C21.4873 22.5981 22.1237 22.5981 22.5162 22.2056C22.9087 21.8131 22.9087 21.1768 22.5162 20.7843L18.9237 17.1918ZM16.8307 6.5707C19.5782 9.31819 19.5782 13.7727 16.8307 16.5202C14.0833 19.2677 9.62873 19.2677 6.88125 16.5202C4.13377 13.7727 4.13377 9.31819 6.88125 6.5707C9.62873 3.82322 14.0833 3.82322 16.8307 6.5707Z" fill="#B6B9BF"/>
</svg>
