<svg width="51" height="50" viewBox="0 0 51 50" fill="none" xmlns="http://www.w3.org/2000/svg">
<path d="M18.6382 26.3221L21.9812 24.171C21.0984 23.1284 20.2356 22.1094 19.3728 21.0906C19.2021 20.8896 19.0329 20.686 18.8584 20.4876C18.4599 20.0346 18.4596 19.5698 18.8625 19.1309C18.8982 19.0921 18.9386 19.0577 18.9772 19.0217C20.3978 17.6933 20.0782 17.8526 21.6711 18.4199C23.1268 18.9383 24.5609 19.5346 25.9587 20.1938C26.8765 20.6266 27.609 20.7287 28.4977 20.0462C29.6884 19.1244 31.091 18.5156 32.5774 18.2754C33.7909 18.0799 34.9867 18.0905 36.1847 18.4306C37.8159 18.8934 37.7458 20.5595 36.9684 21.3492C36.5427 21.7692 36.0763 22.1457 35.576 22.4733C34.321 23.319 33.0536 24.1478 31.7676 24.9458C31.5806 25.0512 31.419 25.1965 31.2944 25.3713C31.1698 25.5462 31.0851 25.7463 31.0466 25.9575C30.4266 28.7186 29.7783 31.4739 29.1333 34.2294C29.0583 34.5186 28.9687 34.8035 28.865 35.0837C28.792 35.3019 28.6752 35.5029 28.5216 35.6742C28.3679 35.8456 28.1808 35.9835 27.9718 36.0798C27.2101 36.445 26.4458 36.8054 25.6696 37.1376C24.8665 37.4816 24.4481 37.1713 24.4988 36.2983C24.6265 34.1022 24.755 31.9061 24.8843 29.7101C24.8914 29.5887 24.8853 29.4668 24.8853 29.2612C24.651 29.3951 24.4604 29.5034 24.2705 29.613C22.4421 30.6688 20.6571 31.8153 18.669 32.5564C17.8812 32.8526 17.0608 33.0534 16.2253 33.1547C15.4125 33.2492 14.7827 32.848 14.4285 32.0545C14.0624 31.2723 13.8352 30.4324 13.7569 29.5723C13.6651 28.3624 13.5751 27.1523 13.5036 25.9411C13.463 25.2563 13.7687 24.8028 14.4087 24.4892C15.8762 23.7698 15.7123 23.8739 16.6992 24.7344C17.2697 25.2316 17.856 25.7115 18.4368 26.1972C18.5011 26.2432 18.5684 26.285 18.6382 26.3221ZM25.66 35.837L25.799 35.9005C26.1486 35.7402 26.4866 35.5421 26.8505 35.428C27.4674 35.2349 27.6313 34.7616 27.7721 34.2075C28.5374 31.195 29.3179 28.1863 30.1134 25.1814C30.1991 24.8487 30.3511 24.5368 30.5603 24.2643C30.7696 23.9918 31.0316 23.7644 31.3309 23.5958C32.432 22.9366 33.49 22.2046 34.5542 21.4854C35.064 21.1409 35.5618 20.7743 36.0366 20.3833C36.4375 20.0533 36.3762 19.8014 35.8906 19.6364C34.8363 19.2788 33.7537 19.2232 32.6581 19.3637C31.242 19.5451 30.0167 20.2023 28.8368 20.9487C25.5654 23.0187 22.2987 25.0963 19.0368 27.1814C18.455 27.5523 18.3655 27.5591 17.8485 27.0862C17.1991 26.4919 16.5648 25.8812 15.9177 25.2845C15.7465 25.1265 15.5855 24.8595 15.2967 25.0613C15.0005 25.2683 14.5171 25.3176 14.5694 25.8479C14.7365 27.5435 14.8363 29.2494 15.0959 30.9308C15.2992 32.2475 15.7306 32.4263 17.0164 32.0431C18.4107 31.6276 19.6897 30.9641 20.9306 30.2228C22.2449 29.4378 23.5442 28.6278 24.8526 27.8328C25.4255 27.4847 25.8476 27.679 25.9409 28.3326C25.9862 28.5927 26.0097 28.8562 26.0113 29.1203C25.9696 30.757 25.9171 32.3934 25.8623 34.0297C25.8565 34.2035 25.8064 34.3756 25.7883 34.5495C25.7415 34.9784 25.7021 35.408 25.6604 35.8372L25.66 35.837ZM23.035 23.5064L26.1674 21.5079C24.4426 20.5457 22.645 19.7202 20.7911 19.039C20.6555 18.9901 20.4552 18.9598 20.3468 19.0246C20.0105 19.2267 19.7043 19.4786 19.4982 19.6293L21.2387 21.5378C21.8152 22.1695 22.3915 22.801 23.035 23.5065V23.5064Z" fill="white"/>
<path d="M49.5004 25C49.5004 39.4 38.9632 49 25.9648 49C15.401 49 6.8779 43.3962 3.90039 34.6" stroke="white" stroke-width="2" stroke-linecap="round" stroke-linejoin="round"/>
<path d="M1.5 25C1.5 10.6 12.0372 1 25.0356 1C35.5994 1 44.1226 6.60374 47.1 15.4" stroke="white" stroke-width="2" stroke-linecap="round" stroke-linejoin="round"/>
<path d="M13.5 36.9996L3.90002 34.5996L1.5 44.1996" stroke="white" stroke-width="2" stroke-linecap="round" stroke-linejoin="round"/>
<path d="M37.5 12.9998L47.1 15.3998L49.5 5.7998" stroke="white" stroke-width="2" stroke-linecap="round" stroke-linejoin="round"/>
</svg>
